<?xml version="1.0" standalone="no"?>
<!DOCTYPE svg PUBLIC "-//W3C//DTD SVG 20010904//EN"
 "http://www.w3.org/TR/2001/REC-SVG-20010904/DTD/svg10.dtd">
<svg version="1.0" xmlns="http://www.w3.org/2000/svg"
 width="700.000000pt" height="700.000000pt" viewBox="0 0 700.000000 700.000000"
 preserveAspectRatio="xMidYMid meet">
<metadata>
Created by potrace 1.14, written by Peter Selinger 2001-2017
</metadata>
<g transform="translate(0.000000,700.000000) scale(0.100000,-0.100000)"
fill="#000000" stroke="none">
<path d="M3262 5760 c-778 -75 -1382 -472 -1707 -1120 -131 -262 -205 -511
-252 -850 -24 -173 -24 -648 0 -839 71 -565 294 -976 641 -1185 139 -83 281
-120 466 -118 362 2 548 143 625 477 9 36 29 229 45 428 16 199 35 427 41 507
7 80 15 148 18 152 11 12 124 -13 178 -40 116 -56 212 -177 453 -567 188 -304
235 -370 360 -496 115 -115 189 -165 307 -209 113 -41 212 -54 356 -47 259 12
459 93 655 266 112 99 310 339 360 436 43 86 54 216 27 320 -30 115 -96 163
-181 130 -39 -15 -58 -35 -152 -158 -250 -331 -373 -416 -585 -405 -70 4 -97
10 -149 36 -117 57 -235 194 -387 445 -220 366 -342 478 -586 542 l-50 13 45
18 c104 42 269 129 354 187 117 79 277 235 357 345 326 455 300 1066 -60 1422
-147 145 -367 250 -621 295 -112 20 -420 28 -558 15z m303 -554 c228 -62 380
-209 436 -423 27 -101 29 -268 4 -373 -23 -103 -93 -244 -165 -334 -115 -143
-323 -270 -525 -321 -132 -34 -134 -34 -129 13 3 20 20 206 39 412 35 393 35
451 0 521 -24 48 -44 68 -87 90 -51 26 -141 34 -224 20 -188 -33 -296 -141
-324 -326 -10 -72 -54 -543 -66 -717 l-7 -96 -30 -6 c-16 -3 -46 -6 -66 -6
-86 -1 -178 -58 -216 -133 -59 -118 -12 -283 96 -338 23 -11 70 -23 110 -26
l69 -6 -5 -36 c-3 -20 -19 -189 -35 -376 -34 -382 -35 -390 -61 -461 -51 -136
-159 -136 -287 0 -134 143 -234 422 -274 761 -20 169 -17 621 5 770 100 669
409 1111 919 1314 86 34 254 77 353 90 109 15 399 7 470 -13z"/>
</g>
</svg>
